<svg width="484" height="259" viewBox="0 0 484 259" fill="none" xmlns="http://www.w3.org/2000/svg">
<g clip-path="url(#clip0_35_585)">
<path d="M79.0773 243.318C62.0843 225.818 56.0867 154.819 79.0773 108.82C102.068 62.8204 229.264 80.4442 240.011 85.82C249.008 90.3199 252.506 94.8199 260.503 94.8199C268.5 94.8199 271.498 89.82 281.994 85.82C292.49 81.8201 371.957 71.8203 401.945 94.8199C431.932 117.82 423.936 215.532 395.947 240.818C365.46 268.361 276.996 258.317 266.5 253.818C256.005 249.318 250.007 242.818 243.01 243.318C236.013 243.818 231.015 248.818 221.019 252.318C211.023 255.818 96.0703 260.817 79.0773 243.318Z" fill="white"/>
<path d="M276.996 104.82L257.504 115.819V166.819V186.318L244.509 217.318L255.005 229.818L268.5 240.317L297.488 242.817L326.476 240.317L367.459 234.318L386.951 225.818L396.447 202.818L403.944 180.818V150.819L399.946 111.819L386.951 99.8196H351.466H307.983L276.996 104.82Z" fill="#FF5800"/>
<path d="M278.76 196.112L251.007 230.818L244.01 213.818L259.003 180.319V145.319L255.505 116.319L273.498 107.82L270.999 146.819V171.319L276.507 188.194L273.992 149.027C272.538 142.142 273.498 141.319 273.498 141.319L273.992 149.027C275.315 155.291 278.635 166.573 286.492 186.818C298.229 195.684 309.621 200.301 318.304 202.706L333.973 205.318C333.973 205.318 327.738 205.318 318.304 202.706L278.76 196.112Z" fill="#531D00"/>
<path d="M280.061 197.478C270.744 188.634 268.238 116.386 276.355 106.829C284.472 97.2707 384.66 94.6288 394.036 104.928C403.412 115.227 408.223 178.154 400.752 192.541C393.281 206.928 289.377 206.323 280.061 197.478Z" stroke="black" stroke-width="8"/>
<path d="M276.565 106.599C267.333 109.518 257.073 115.099 256.073 118.099M245.078 214.598C247.077 260.097 375.524 235.597 384.021 228.598C392.517 221.598 402.513 187.598 402.513 187.598" stroke="black" stroke-width="8"/>
<path d="M83.492 134.499L114.979 107L110.481 129.999V167.499L114.979 187.498L123.476 196.998L153.463 201.998L195.946 204.498L228.433 201.998L252.923 196.998L231.931 234.498L217.437 237.498L170.456 243.497L110.481 239.998L85.991 228.498L77.9943 187.498L83.492 134.499Z" fill="#FF5800"/>
<path d="M88.9898 231.498L119.977 191.498L112.98 183.498V169.499V153.999V136.999V116.499V107L94.4875 121.499L80.4933 136.999V151.499V166.999V188.498V207.998L88.9898 231.498Z" fill="#531D00"/>
<path d="M112.98 120.499L119.977 101.5L129.973 97.9997L150.465 93.9998C159.794 94.6664 178.753 95.9997 179.952 95.9997H205.942L235.43 97.9997L249.424 101.5L254.922 112.499L259.42 136.999L260.919 166.499L257.421 188.498L247.925 198.998L219.936 204.498L157.462 202.998L122.976 197.498L115.479 183.498L110.981 152.999L112.98 120.499Z" fill="#FF5800"/>
<path d="M117.978 194.998C117.978 194.998 108.982 97.4996 115.979 130.499C119.022 144.853 119.415 175.498 127.974 186.498C136.532 197.498 166.458 188.998 189.449 204.998L117.978 194.998Z" fill="#531D00"/>
<path d="M119.046 194.778C109.05 185.278 109.55 110.779 119.046 101.28C128.542 91.7797 240.496 93.2796 250.492 104.279C260.488 115.279 262.987 180.278 253.991 194.778C244.994 209.278 129.042 204.278 119.046 194.778Z" stroke="black" stroke-width="8"/>
<path d="M119.546 100.78C119.546 100.78 88.5586 123.279 82.5611 137.279C76.5635 151.279 78.0629 215.778 87.559 230.278C97.0551 244.777 220.505 246.277 234.499 229.778C248.493 213.278 256.49 188.278 256.49 188.278" stroke="black" stroke-width="8"/>
<path d="M150.682 170.674C148.683 170.608 147.051 169.907 145.785 168.573C144.519 167.238 143.463 165.283 142.617 162.708C141.804 160.096 141.065 156.878 140.399 153.056C140.159 151.676 139.952 150.377 139.779 149.156C139.606 147.936 139.447 146.795 139.302 145.732C134.463 145.337 130.829 144.551 128.398 143.373C125.967 142.196 124.514 140.248 124.041 137.529C123.45 134.14 124.791 131.912 128.063 130.844C131.375 129.779 136.55 129.362 143.586 129.595C150.662 129.829 156.082 130.595 159.846 131.895C163.65 133.196 165.847 135.542 166.437 138.93C166.904 141.61 166.098 143.484 164.018 144.551C161.972 145.58 158.59 146.135 153.874 146.214C154.139 147.28 154.398 148.425 154.651 149.648C154.904 150.871 155.15 152.172 155.391 153.551C156.441 159.581 156.67 163.976 156.078 166.738C155.479 169.461 153.681 170.773 150.682 170.674ZM179.659 171.867C176.901 171.776 174.492 170.384 172.433 167.691C170.414 164.999 168.89 161.501 167.862 157.196C166.615 151.866 166.378 147.195 167.15 143.185C167.955 139.137 169.678 136.021 172.318 133.836C174.959 131.651 178.377 130.627 182.575 130.766C186.813 130.906 190.63 132.169 194.026 134.553C197.463 136.94 200.274 140.186 202.461 144.294C204.687 148.403 206.087 153.132 206.661 158.479C207.15 162.883 206.818 166.34 205.665 168.848C204.552 171.358 202.616 172.567 199.858 172.476C198.299 172.425 197.051 172.109 196.116 171.53C195.173 170.911 194.446 170.162 193.936 169.283C193.458 168.366 193.14 167.455 192.982 166.548C192.817 165.602 192.737 164.797 192.74 164.131C191.467 164.128 189.975 164.118 188.263 164.1C186.544 164.043 185.098 163.956 183.925 163.839C184.161 164.513 184.362 165.323 184.527 166.269C184.685 167.175 184.663 168.075 184.461 168.97C184.292 169.826 183.839 170.536 183.103 171.099C182.366 171.663 181.218 171.919 179.659 171.867ZM181.672 153.304C184.81 153.29 187.968 153.394 191.147 153.617C191.106 152.244 190.856 150.924 190.397 149.655C189.937 148.386 189.259 147.345 188.362 146.531C187.465 145.718 186.317 145.288 184.918 145.242C183.519 145.196 182.508 145.554 181.886 146.317C181.303 147.082 181.002 148.09 180.982 149.343C180.995 150.558 181.225 151.879 181.672 153.304ZM231.453 173.403C227.168 173.222 223.43 172.413 220.239 170.976C217.047 169.538 214.434 167.316 212.4 164.311C210.359 161.265 208.909 157.28 208.051 152.354C207.303 148.059 207.357 144.378 208.214 141.311C209.111 138.245 210.771 135.91 213.195 134.306C215.611 132.662 218.798 131.905 222.756 132.036C226.234 132.151 229.358 132.744 232.128 133.815C234.899 134.886 237.185 136.372 238.987 138.273C240.821 140.136 242.039 142.331 242.638 144.859C243.217 147.268 243.161 149.342 242.47 151.083C241.819 152.824 240.655 154.353 238.976 155.669C240.417 155.951 241.81 156.761 243.156 158.099C244.542 159.438 245.396 161.033 245.719 162.885C245.938 164.146 245.901 165.418 245.608 166.702C245.315 167.985 244.645 169.158 243.598 170.22C242.591 171.284 241.086 172.116 239.084 172.715C237.115 173.277 234.571 173.506 231.453 173.403ZM223.474 151.219C224.376 151.601 225.406 151.811 226.565 151.85C227.718 151.849 228.682 151.567 229.459 151.005C230.276 150.444 230.577 149.553 230.365 148.332C230.207 147.425 229.8 146.687 229.144 146.117C228.528 145.548 227.803 145.152 226.969 144.928C226.129 144.665 225.292 144.54 224.459 144.551C223.627 144.563 222.938 144.717 222.393 145.012C221.695 145.342 221.282 145.935 221.153 146.793C221.064 147.652 221.215 148.519 221.606 149.394C222.03 150.231 222.653 150.839 223.474 151.219ZM225.884 165.05C226.778 165.393 227.805 165.584 228.965 165.622C230.117 165.621 231.089 165.379 231.879 164.896C232.709 164.414 233.032 163.641 232.846 162.577C232.709 161.789 232.319 161.149 231.677 160.658C231.068 160.128 230.347 159.752 229.513 159.528C228.679 159.305 227.849 159.219 227.023 159.27C226.191 159.281 225.495 159.396 224.937 159.612C224.232 159.902 223.805 160.417 223.655 161.157C223.546 161.897 223.676 162.646 224.047 163.403C224.457 164.161 225.069 164.71 225.884 165.05Z" fill="#290E00"/>
<path d="M321.43 176.5C317.146 176.319 313.408 175.51 310.216 174.072C307.024 172.634 304.411 170.413 302.377 167.407C300.336 164.362 298.887 160.376 298.029 155.45C297.28 151.155 297.335 147.474 298.192 144.407C299.089 141.342 300.749 139.007 303.172 137.402C305.588 135.758 308.776 135.001 312.733 135.132C316.212 135.247 319.336 135.84 322.106 136.911C324.876 137.983 327.162 139.469 328.964 141.37C330.799 143.233 332.016 145.428 332.615 147.955C333.194 150.364 333.138 152.439 332.447 154.179C331.797 155.921 330.632 157.449 328.954 158.765C330.394 159.048 331.787 159.858 333.133 161.195C334.519 162.534 335.373 164.129 335.696 165.981C335.916 167.242 335.879 168.515 335.586 169.798C335.292 171.081 334.622 172.254 333.575 173.316C332.568 174.38 331.063 175.212 329.061 175.812C327.092 176.373 324.549 176.603 321.43 176.5ZM313.452 154.315C314.353 154.697 315.383 154.908 316.543 154.946C317.695 154.945 318.66 154.663 319.436 154.101C320.253 153.541 320.555 152.65 320.342 151.428C320.184 150.522 319.777 149.783 319.121 149.213C318.506 148.644 317.781 148.248 316.947 148.025C316.106 147.762 315.269 147.636 314.437 147.648C313.604 147.659 312.915 147.813 312.371 148.108C311.673 148.438 311.259 149.032 311.131 149.889C311.042 150.748 311.193 151.615 311.584 152.49C312.008 153.327 312.63 153.935 313.452 154.315ZM315.861 168.147C316.756 168.49 317.783 168.68 318.942 168.719C320.095 168.718 321.066 168.475 321.856 167.992C322.686 167.51 323.009 166.737 322.824 165.673C322.686 164.885 322.297 164.245 321.655 163.754C321.046 163.225 320.324 162.848 319.49 162.625C318.656 162.401 317.827 162.315 317.001 162.366C316.168 162.378 315.472 162.492 314.914 162.708C314.209 162.999 313.782 163.513 313.633 164.253C313.523 164.994 313.654 165.742 314.024 166.499C314.434 167.257 315.047 167.806 315.861 168.147ZM359.495 177.817C358.295 177.777 357.091 177.483 355.883 176.934C354.707 176.346 353.67 175.528 352.772 174.48C351.914 173.433 351.355 172.161 351.094 170.663C350.922 169.678 350.788 168.792 350.69 168.005C346.721 166.895 343.3 164.94 340.427 162.142C337.588 159.305 335.767 155.582 334.964 150.971C334.167 146.4 334.312 142.781 335.398 140.113C336.476 137.406 338.615 136.106 341.813 136.211C344.012 136.284 345.884 136.992 347.43 138.336C349.016 139.682 350.014 141.537 350.426 143.901C350.653 145.202 350.779 146.499 350.806 147.792C350.873 149.088 350.975 150.129 351.112 150.917C351.387 152.494 351.883 153.744 352.6 154.669C353.318 155.594 354.356 156.079 355.715 156.124C357.115 156.17 357.995 155.749 358.357 154.859C358.759 153.972 358.822 152.739 358.548 151.163C358.411 150.375 358.125 149.308 357.692 147.961C357.292 146.577 356.985 145.274 356.772 144.052C356.367 141.727 356.731 139.937 357.864 138.682C358.997 137.426 360.663 136.835 362.861 136.907C365.02 136.979 366.906 137.648 368.518 138.916C370.13 140.184 371.464 141.913 372.521 144.103C373.579 146.293 374.351 148.786 374.838 151.584C375.724 156.668 375.155 160.586 373.13 163.34C371.139 166.056 368.223 167.801 364.383 168.576C364.554 169.326 364.721 170.174 364.886 171.119C365.154 172.656 365.057 173.926 364.596 174.93C364.135 175.933 363.449 176.674 362.539 177.154C361.629 177.633 360.614 177.854 359.495 177.817Z" fill="#290E00"/>
</g>
<defs>
<clipPath id="clip0_35_585">
<rect width="484" height="259" fill="white"/>
</clipPath>
</defs>
</svg>
