<svg width="484" height="259" viewBox="0 0 484 259" fill="none" xmlns="http://www.w3.org/2000/svg">
<path d="M79.0773 246.351C62.0843 232.553 56.0867 176.571 79.0773 140.301C102.068 104.031 229.264 117.927 240.011 122.166C249.008 125.714 252.506 129.262 260.503 129.262C268.5 129.262 271.498 125.32 281.994 122.166C292.49 119.012 371.957 111.127 401.945 129.262C431.932 147.397 423.936 224.442 395.947 244.38C365.46 266.097 276.996 258.178 266.5 254.63C256.005 251.082 250.007 245.957 243.01 246.351C236.013 246.745 231.015 250.687 221.019 253.447C211.023 256.207 96.0703 260.149 79.0773 246.351Z" fill="white"/>
<path d="M347.927 99.195L353.927 131.182L395.927 137.767L405.427 189.04L434.427 211.149C434.427 211.149 421.875 186.148 431.927 176.34C442.394 166.126 476.927 169.754 476.927 169.754C476.927 169.754 449.224 161.312 450.427 146.705C451.588 132.601 472.427 102.488 472.427 102.488C472.427 102.488 439.94 119.083 425.427 109.544C408.928 98.6986 408.927 68.1489 408.927 68.1489C408.927 68.1489 401.591 100.809 383.927 106.251C370.279 110.456 347.927 99.195 347.927 99.195Z" fill="#FF0000" stroke="white"/>
<path d="M276.996 137.147L257.504 145.82V186.032V201.408L244.509 225.85L255.005 235.706L268.5 243.985L297.488 245.957L326.476 243.985L367.459 239.255L386.951 232.552L396.447 214.418L403.944 197.071V173.417L399.946 142.666L386.951 133.205H351.466H307.983L276.996 137.147Z" fill="#FF5800"/>
<path d="M278.76 209.13L251.007 236.495L244.01 223.091L259.003 196.677V169.08L255.505 146.214L273.498 139.512L270.999 170.263V189.581L276.507 202.887L273.992 172.004C272.538 166.575 273.498 165.926 273.498 165.926L273.992 172.004C275.315 176.943 278.635 185.839 286.492 201.802C298.229 208.793 309.621 212.433 318.304 214.329L333.973 216.389C333.973 216.389 327.738 216.389 318.304 214.329L278.76 209.13Z" fill="#531D00"/>
<path d="M280.061 210.207C270.744 203.233 268.238 146.267 276.355 138.731C284.472 131.195 384.66 129.112 394.036 137.232C403.412 145.353 408.223 194.97 400.752 206.314C393.281 217.658 289.377 217.181 280.061 210.207Z" stroke="black" stroke-width="8"/>
<path d="M276.565 138.551C267.333 140.851 257.073 145.253 256.073 147.618M245.078 223.706C247.077 259.582 375.524 240.264 384.021 234.745C392.517 229.225 402.513 202.417 402.513 202.417" stroke="black" stroke-width="8"/>
<path d="M83.492 160.549L114.979 138.866L110.481 157.001V186.569L114.979 202.338L123.476 209.829L153.463 213.771L195.946 215.742L228.433 213.771L252.923 209.829L231.931 239.397L217.437 241.762L170.456 246.493L110.481 243.733L85.991 234.666L77.9943 202.338L83.492 160.549Z" fill="#FF5800"/>
<path d="M88.9898 237.031L119.977 205.492L112.98 199.184V188.146V175.924V162.52V146.356V138.866L94.4875 150.299L80.4933 162.52V173.953V186.174V203.127V218.502L88.9898 237.031Z" fill="#531D00"/>
<path d="M112.98 149.51L119.977 134.529L129.973 131.77L150.465 128.616C159.794 129.141 178.753 130.193 179.952 130.193H205.942L235.43 131.77L249.424 134.529L254.922 143.203L259.42 162.52L260.919 185.78L257.421 203.127L247.925 211.406L219.936 215.742L157.462 214.56L122.976 210.223L115.479 199.184L110.981 175.136L112.98 149.51Z" fill="#FF5800"/>
<path d="M117.978 208.252C117.978 208.252 108.982 131.375 115.979 157.395C119.022 168.713 119.415 192.876 127.974 201.55C136.532 210.223 166.458 203.521 189.449 216.136L117.978 208.252Z" fill="#531D00"/>
<path d="M119.046 208.078C109.05 200.588 109.55 141.846 119.046 134.356C128.542 126.865 240.496 128.048 250.492 136.721C260.488 145.394 262.987 196.645 253.991 208.078C244.994 219.511 129.042 215.569 119.046 208.078Z" stroke="black" stroke-width="8"/>
<path d="M119.546 133.961C119.546 133.961 88.5586 151.702 82.5611 162.741C76.5635 173.779 78.0629 224.636 87.559 236.069C97.0551 247.502 220.505 248.685 234.499 235.675C248.493 222.665 256.49 202.953 256.49 202.953" stroke="black" stroke-width="8"/>
<path d="M151.777 194.062C149.777 194.01 148.116 193.326 146.791 192.01C145.467 190.693 144.324 188.761 143.363 186.212C142.434 183.624 141.551 180.437 140.714 176.648C140.412 175.281 140.147 173.992 139.919 172.783C139.692 171.573 139.482 170.441 139.289 169.388C134.438 169.028 130.773 168.273 128.292 167.121C125.811 165.969 124.273 164.045 123.678 161.35C122.936 157.991 124.174 155.771 127.394 154.69C130.654 153.61 135.803 153.162 142.841 153.345C149.918 153.53 155.366 154.254 159.184 155.519C163.041 156.784 165.341 159.097 166.083 162.456C166.67 165.112 165.949 166.976 163.92 168.049C161.922 169.085 158.57 169.657 153.864 169.768C154.177 170.824 154.487 171.959 154.794 173.171C155.102 174.382 155.407 175.672 155.709 177.039C157.029 183.015 157.456 187.375 156.989 190.12C156.513 192.826 154.776 194.14 151.777 194.062ZM180.77 195.051C178.011 194.979 175.543 193.613 173.365 190.955C171.227 188.297 169.548 184.836 168.328 180.572C166.843 175.29 166.396 170.658 166.987 166.673C167.609 162.651 169.189 159.546 171.727 157.36C174.266 155.174 177.634 154.136 181.833 154.245C186.071 154.356 189.941 155.583 193.44 157.926C196.979 160.271 199.933 163.474 202.302 167.536C204.71 171.598 206.321 176.281 207.135 181.583C207.821 185.951 207.645 189.383 206.607 191.88C205.608 194.378 203.729 195.591 200.97 195.519C199.411 195.478 198.151 195.174 197.19 194.605C196.221 193.997 195.462 193.259 194.912 192.39C194.394 191.484 194.035 190.581 193.837 189.683C193.63 188.745 193.513 187.946 193.486 187.285C192.215 187.291 190.724 187.291 189.013 187.285C187.294 187.241 185.846 187.164 184.669 187.056C184.936 187.723 185.173 188.525 185.38 189.462C185.578 190.361 185.597 191.254 185.435 192.143C185.305 192.994 184.885 193.702 184.175 194.266C183.464 194.83 182.33 195.091 180.77 195.051ZM181.945 176.616C185.078 176.581 188.237 176.664 191.422 176.863C191.32 175.501 191.011 174.192 190.495 172.936C189.979 171.68 189.254 170.652 188.322 169.851C187.39 169.05 186.224 168.631 184.824 168.594C183.425 168.558 182.431 168.92 181.844 169.682C181.297 170.444 181.042 171.447 181.078 172.691C181.145 173.896 181.434 175.205 181.945 176.616ZM232.567 196.226C228.28 196.076 224.51 195.298 221.257 193.893C218.005 192.488 215.296 190.301 213.129 187.332C210.954 184.324 209.327 180.378 208.248 175.496C207.307 171.239 207.196 167.586 207.914 164.536C208.671 161.488 210.224 159.16 212.572 157.551C214.912 155.904 218.061 155.132 222.019 155.235C225.498 155.325 228.645 155.893 231.46 156.937C234.275 157.981 236.625 159.441 238.51 161.315C240.426 163.151 241.741 165.321 242.453 167.825C243.139 170.212 243.177 172.271 242.565 174.003C241.994 175.735 240.9 177.26 239.282 178.577C240.734 178.848 242.161 179.642 243.566 180.96C245.01 182.28 245.935 183.857 246.341 185.693C246.617 186.943 246.637 188.205 246.402 189.481C246.167 190.756 245.551 191.924 244.553 192.986C243.595 194.048 242.13 194.883 240.157 195.492C238.216 196.063 235.686 196.308 232.567 196.226ZM223.6 174.265C224.517 174.639 225.556 174.841 226.716 174.871C227.867 174.862 228.817 174.576 229.567 174.013C230.358 173.451 230.619 172.565 230.352 171.354C230.153 170.456 229.714 169.726 229.033 169.165C228.392 168.604 227.651 168.216 226.808 168C225.956 167.745 225.115 167.626 224.284 167.643C223.453 167.66 222.772 167.817 222.241 168.114C221.559 168.445 221.173 169.037 221.083 169.889C221.033 170.742 221.223 171.602 221.652 172.467C222.113 173.295 222.763 173.894 223.6 174.265ZM226.629 187.975C227.538 188.309 228.572 188.491 229.732 188.522C230.883 188.513 231.842 188.266 232.609 187.781C233.417 187.297 233.704 186.528 233.471 185.474C233.298 184.693 232.88 184.06 232.217 183.577C231.585 183.056 230.848 182.687 230.005 182.471C229.162 182.255 228.329 182.175 227.507 182.231C226.676 182.248 225.986 182.366 225.438 182.585C224.747 182.877 224.344 183.391 224.228 184.126C224.152 184.862 224.316 185.604 224.72 186.352C225.164 187.102 225.8 187.643 226.629 187.975Z" fill="#290E00"/>
<path d="M322.531 198.667C318.244 198.517 314.474 197.739 311.222 196.334C307.97 194.928 305.26 192.741 303.093 189.772C300.918 186.764 299.291 182.819 298.212 177.937C297.272 173.68 297.16 170.026 297.878 166.977C298.636 163.929 300.189 161.601 302.537 159.992C304.876 158.345 308.025 157.572 311.984 157.676C315.463 157.766 318.61 158.334 321.425 159.378C324.239 160.422 326.589 161.882 328.474 163.756C330.391 165.592 331.705 167.762 332.417 170.266C333.104 172.653 333.141 174.712 332.53 176.443C331.959 178.176 330.864 179.701 329.247 181.018C330.698 181.289 332.126 182.083 333.53 183.401C334.975 184.72 335.9 186.298 336.305 188.134C336.582 189.383 336.602 190.646 336.367 191.921C336.132 193.197 335.515 194.365 334.517 195.426C333.56 196.489 332.094 197.324 330.122 197.933C328.18 198.504 325.65 198.748 322.531 198.667ZM313.565 176.706C314.482 177.08 315.521 177.281 316.68 177.312C317.831 177.303 318.782 177.017 319.532 176.454C320.322 175.892 320.584 175.006 320.316 173.795C320.118 172.897 319.678 172.167 318.997 171.605C318.357 171.045 317.615 170.657 316.772 170.441C315.921 170.185 315.079 170.066 314.248 170.084C313.417 170.101 312.736 170.258 312.206 170.555C311.524 170.886 311.137 171.478 311.047 172.33C310.997 173.183 311.187 174.042 311.617 174.908C312.078 175.736 312.727 176.335 313.565 176.706ZM316.594 190.416C317.502 190.75 318.537 190.932 319.696 190.963C320.847 190.954 321.806 190.707 322.574 190.222C323.381 189.738 323.669 188.969 323.436 187.915C323.263 187.133 322.845 186.501 322.182 186.018C321.55 185.497 320.812 185.128 319.969 184.912C319.127 184.696 318.294 184.616 317.471 184.672C316.64 184.689 315.951 184.807 315.403 185.026C314.712 185.318 314.309 185.832 314.193 186.567C314.117 187.303 314.281 188.045 314.685 188.793C315.129 189.543 315.765 190.083 316.594 190.416ZM360.606 199.718C359.407 199.687 358.191 199.403 356.959 198.866C355.759 198.291 354.686 197.486 353.742 196.452C352.838 195.419 352.222 194.16 351.894 192.676C351.678 191.699 351.504 190.821 351.372 190.041C347.357 188.965 343.853 187.049 340.858 184.291C337.895 181.496 335.908 177.813 334.899 173.243C333.898 168.713 333.879 165.12 334.843 162.466C335.799 159.772 337.876 158.467 341.075 158.551C343.274 158.608 345.176 159.298 346.78 160.622C348.424 161.946 349.505 163.78 350.023 166.123C350.308 167.412 350.493 168.699 350.578 169.982C350.702 171.267 350.851 172.3 351.024 173.081C351.369 174.643 351.921 175.881 352.679 176.794C353.437 177.707 354.496 178.181 355.856 178.217C357.255 178.253 358.116 177.829 358.437 176.944C358.798 176.06 358.806 174.837 358.461 173.275C358.289 172.494 357.956 171.437 357.462 170.104C357 168.732 356.636 167.441 356.368 166.231C355.859 163.926 356.142 162.147 357.217 160.894C358.291 159.64 359.928 159.042 362.128 159.099C364.287 159.156 366.2 159.808 367.867 161.055C369.534 162.302 370.945 164.009 372.099 166.175C373.254 168.341 374.137 170.81 374.75 173.583C375.863 178.622 375.471 182.514 373.573 185.261C371.706 187.969 368.873 189.72 365.073 190.515C365.277 191.258 365.482 192.098 365.689 193.035C366.026 194.559 365.987 195.82 365.571 196.819C365.156 197.817 364.504 198.558 363.617 199.039C362.729 199.521 361.726 199.747 360.606 199.718Z" fill="#290E00"/>
<path d="M75.4852 127.416L68.7584 118.097" stroke="#FF5800" stroke-linecap="round"/>
<path d="M72.1202 131.356L56.1212 121.289M69.2636 135.523L53.1645 136.143" stroke="#FF5800" stroke-linecap="round"/>
</svg>
